Coordinates
version=1
nRows=33
nColumns=38
inDegrees=no

Units are S.I. units (second, meters, Newtons, ...)
If the header above contains a line with 'inDegrees', this indicates whether rotational values are in degrees (yes) or radians (no).

endheader
time	pelvis_tilt	pelvis_list	pelvis_rotation	pelvis_tx	pelvis_ty	pelvis_tz	hip_flexion_r	hip_adduction_r	hip_rotation_r	knee_angle_r	ankle_angle_r	subtalar_angle_r	mtp_angle_r	hip_flexion_l	hip_adduction_l	hip_rotation_l	knee_angle_l	ankle_angle_l	subtalar_angle_l	mtp_angle_l	lumbar_extension	lumbar_bending	lumbar_rotation	arm_flex_r	arm_add_r	arm_rot_r	elbow_flex_r	pro_sup_r	wrist_flex_r	wrist_dev_r	arm_flex_l	arm_add_l	arm_rot_l	elbow_flex_l	pro_sup_l	wrist_flex_l	wrist_dev_l
20	2.8729	1.4556	-1.2281	0.625287	-0.0698982	0.948437	-0.0236056	0.00364013	-0.137389	0.301487	-0.404072	0	0	-0.136465	-0.047661	-0.0120253	0.120662	-0.388512	0	0	-0.268353	0.0930733	-0.235112	0.446122	-0.172951	0.613316	0.13139	1.40528	0	0	0.197623	-0.435243	0.934813	0.504759	0.43494	0	0
20.01	2.87564	1.45575	-1.23097	0.62518	-0.0697355	0.948381	-0.0234719	0.00308555	-0.137395	0.302111	-0.404072	0	0	-0.136279	-0.0471221	-0.0119051	0.121407	-0.387978	0	0	-0.268453	0.0929681	-0.235584	0.44502	-0.173985	0.622601	0.132876	1.39426	0	0	0.19553	-0.435091	0.930076	0.505268	0.439244	0	0
20.02	2.87446	1.45603	-1.2302	0.625101	-0.0695963	0.948361	-0.0237732	0.00328249	-0.136059	0.300809	-0.404405	0	0	-0.135798	-0.0469649	-0.0118303	0.122127	-0.387643	0	0	-0.268794	0.0930872	-0.235244	0.443707	-0.175511	0.632179	0.134978	1.38347	0	0	0.193774	-0.434415	0.924635	0.505348	0.444522	0	0
20.03	2.86699	1.4561	-1.22665	0.625099	-0.0694725	0.948325	-0.0237471	0.00314752	-0.1367	0.299361	-0.40462	0	0	-0.135442	-0.0462715	-0.00868501	0.124619	-0.387388	0	0	-0.269356	0.0935507	-0.233622	0.443045	-0.176498	0.641741	0.137335	1.37253	0	0	0.191361	-0.4341	0.918254	0.505044	0.450494	0	0
20.04	2.88234	1.45277	-1.23895	0.624981	-0.0695449	0.948463	-0.0285715	0.00325068	-0.135307	0.298023	-0.405238	0	0	-0.139036	-0.0468621	-0.0128879	0.123636	-0.385766	0	0	-0.27054	0.0932975	-0.232761	0.4498	-0.15728	0.435903	0.10372	1.5708	0	0	0.204497	-0.437011	0.975609	0.502275	0.399039	0	0
20.05	2.87995	1.4532	-1.23673	0.624953	-0.0694546	0.948455	-0.0285347	0.00338919	-0.135364	0.296941	-0.405023	0	0	-0.138202	-0.0469319	-0.012463	0.124594	-0.385105	0	0	-0.270583	0.0933584	-0.232553	0.44858	-0.157515	0.434634	0.104336	1.5708	0	0	0.203945	-0.436642	0.975698	0.501768	0.400092	0	0
20.06	2.88528	1.45408	-1.24176	0.624895	-0.0692658	0.9483	-0.0280481	0.00197183	-0.137444	0.297119	-0.404394	0	0	-0.137303	-0.0460105	-0.0120736	0.125443	-0.384462	0	0	-0.269592	0.0923689	-0.233277	0.447271	-0.157374	0.433896	0.104249	1.5708	0	0	0.202649	-0.436666	0.975416	0.501787	0.400713	0	0
20.07	2.88379	1.4545	-1.24057	0.624877	-0.0691955	0.948235	-0.0268802	0.00157624	-0.138703	0.298866	-0.403529	0	0	-0.136414	-0.0460545	-0.0122508	0.126582	-0.383616	0	0	-0.269376	0.0922865	-0.233138	0.446412	-0.157413	0.433556	0.104161	1.5708	0	0	0.201804	-0.43654	0.974903	0.501891	0.401198	0	0
20.08	2.88694	1.45479	-1.24411	0.62484	-0.0691119	0.948108	-0.0254697	0.000427914	-0.140908	0.302107	-0.402494	0	0	-0.135902	-0.0455359	-0.0127402	0.127666	-0.382661	0	0	-0.269189	0.0917999	-0.232925	0.445708	-0.157406	0.433346	0.103792	1.5708	0	0	0.200866	-0.436572	0.97432	0.502393	0.401494	0	0
20.09	2.88197	1.45454	-1.23981	0.624812	-0.0691604	0.948134	-0.0245597	0.00110743	-0.140784	0.304113	-0.401804	0	0	-0.135369	-0.0461179	-0.0131571	0.128984	-0.381775	0	0	-0.270012	0.0924612	-0.231881	0.445274	-0.157872	0.433235	0.103961	1.5708	0	0	0.200638	-0.43634	0.973762	0.50264	0.40179	0	0
20.1	2.88132	1.45463	-1.23973	0.624762	-0.0691875	0.948076	-0.0231302	0.000553058	-0.141006	0.306441	-0.401231	0	0	-0.134602	-0.0460062	-0.0135262	0.130461	-0.380799	0	0	-0.270345	0.0925563	-0.231192	0.444855	-0.158278	0.433561	0.103902	1.5708	0	0	0.200144	-0.436317	0.973189	0.503113	0.401808	0	0
20.11	2.88183	1.45457	-1.24076	0.624686	-0.0692271	0.948012	-0.021831	-5.10759e-05	-0.141212	0.308948	-0.400517	0	0	-0.133942	-0.0457132	-0.0139173	0.132027	-0.379817	0	0	-0.270794	0.0926084	-0.230639	0.444464	-0.15874	0.434021	0.103857	1.5708	0	0	0.199626	-0.436326	0.97268	0.503622	0.401813	0	0
20.12	2.88559	1.45458	-1.24483	0.624576	-0.0692414	0.947899	-0.0206654	-0.00110499	-0.141953	0.311695	-0.399642	0	0	-0.1333	-0.0450079	-0.0144341	0.133686	-0.378942	0	0	-0.271044	0.0923687	-0.230414	0.443868	-0.159156	0.434502	0.103892	1.5708	0	0	0.199007	-0.436298	0.972285	0.504084	0.402008	0	0
20.13	2.88584	1.45451	-1.24552	0.624483	-0.0693181	0.947847	-0.0197204	-0.00138915	-0.14164	0.313598	-0.39879	0	0	-0.13251	-0.0447713	-0.0150989	0.135352	-0.378333	0	0	-0.271588	0.0926386	-0.229895	0.443332	-0.159707	0.434599	0.104244	1.5708	0	0	0.198751	-0.435943	0.971922	0.504245	0.40236	0	0
20.14	2.88498	1.45468	-1.24507	0.624421	-0.0694144	0.947808	-0.018798	-0.00130518	-0.140832	0.314917	-0.397806	0	0	-0.131503	-0.0446214	-0.0155213	0.136782	-0.377777	0	0	-0.27195	0.0929945	-0.229564	0.442886	-0.160147	0.434168	0.104671	1.5708	0	0	0.198485	-0.435585	0.971767	0.504373	0.402892	0	0
20.15	2.8806	1.45505	-1.24096	0.624354	-0.0695405	0.947809	-0.017785	-0.000410924	-0.139621	0.315872	-0.39674	0	0	-0.130204	-0.0448671	-0.0156334	0.137935	-0.377335	0	0	-0.272358	0.0937383	-0.229316	0.442567	-0.160646	0.433507	0.105305	1.5708	0	0	0.198321	-0.435202	0.971517	0.504453	0.403416	0	0
20.16	2.88399	1.45583	-1.2442	0.624226	-0.0696081	0.947675	-0.0162039	-0.00136867	-0.140454	0.317917	-0.395641	0	0	-0.128974	-0.0440728	-0.0154237	0.138905	-0.376836	0	0	-0.272068	0.0935567	-0.229965	0.442325	-0.160775	0.433109	0.105406	1.5708	0	0	0.197687	-0.435068	0.97099	0.504743	0.403915	0	0
20.17	2.88152	1.45626	-1.24174	0.624097	-0.069771	0.947617	-0.0143634	-0.00163821	-0.140765	0.319985	-0.394745	0	0	-0.127825	-0.0440564	-0.0152217	0.139756	-0.376234	0	0	-0.272479	0.0941961	-0.230249	0.442406	-0.161021	0.432614	0.105647	1.5708	0	0	0.19749	-0.434685	0.970138	0.504738	0.404543	0	0
20.18	2.88722	1.45699	-1.24728	0.623943	-0.0698952	0.94744	-0.0112558	-0.00389564	-0.143205	0.32515	-0.393286	0	0	-0.126666	-0.0429616	-0.0151518	0.140799	-0.375398	0	0	-0.272439	0.0938496	-0.231133	0.442538	-0.160904	0.432004	0.105466	1.5708	0	0	0.196792	-0.434578	0.968601	0.505008	0.405242	0	0
20.19	2.88689	1.45733	-1.24737	0.62384	-0.0701548	0.947382	-0.00827047	-0.00461114	-0.143395	0.329798	-0.391616	0	0	-0.125458	-0.042693	-0.0154177	0.142132	-0.374487	0	0	-0.273314	0.0941686	-0.231109	0.44302	-0.161076	0.431947	0.105692	1.5708	0	0	0.19661	-0.434231	0.966727	0.504976	0.406153	0	0
20.2	2.89239	1.45827	-1.25318	0.62373	-0.0703942	0.947202	-0.00419888	-0.00646332	-0.144244	0.336235	-0.389451	0	0	-0.123712	-0.0415591	-0.0158564	0.143752	-0.373094	0	0	-0.273386	0.0935743	-0.231542	0.44352	-0.161059	0.432257	0.105582	1.5708	0	0	0.195983	-0.43409	0.964638	0.50514	0.407357	0	0
20.21	2.89183	1.45952	-1.25261	0.623593	-0.0707045	0.947059	-7.50266e-05	-0.0071882	-0.143661	0.341007	-0.387389	0	0	-0.120911	-0.0411117	-0.0158111	0.146044	-0.371835	0	0	-0.273386	0.0935698	-0.232029	0.443957	-0.161269	0.432776	0.105955	1.5708	0	0	0.195645	-0.433691	0.962455	0.504967	0.408971	0	0
20.22	2.89868	1.45911	-1.25934	0.62344	-0.0710911	0.946991	0.00204779	-0.00839493	-0.143631	0.345494	-0.391079	0	0	-0.120712	-0.040274	-0.0147148	0.146542	-0.373595	0	0	-0.274984	0.0934531	-0.232589	0.444645	-0.161768	0.442416	0.106324	1.5708	0	0	0.197465	-0.434547	0.969728	0.505388	0.401797	0	0
20.23	2.90314	1.46016	-1.2641	0.623307	-0.0714943	0.946793	0.00691344	-0.0100648	-0.143592	0.352704	-0.388936	0	0	-0.117978	-0.0392462	-0.0153578	0.14929	-0.37259	0	0	-0.275345	0.0929776	-0.232436	0.445556	-0.161618	0.438842	0.10582	1.5708	0	0	0.198141	-0.434375	0.970537	0.505343	0.401216	0	0
20.24	2.90845	1.46113	-1.27005	0.623213	-0.0719552	0.946584	0.0118613	-0.0117346	-0.142907	0.359811	-0.386906	0	0	-0.115284	-0.038111	-0.0161019	0.152088	-0.371551	0	0	-0.275911	0.0924364	-0.232102	0.446567	-0.161612	0.437227	0.105649	1.5708	0	0	0.198786	-0.434312	0.970935	0.505478	0.4008	0	0
20.25	2.91312	1.46214	-1.27555	0.623134	-0.0724694	0.946358	0.0171759	-0.0132958	-0.142172	0.367479	-0.384592	0	0	-0.11224	-0.0370504	-0.0168849	0.155371	-0.370272	0	0	-0.276609	0.091943	-0.231594	0.447703	-0.161654	0.436293	0.105489	1.5708	0	0	0.199544	-0.434244	0.97095	0.505691	0.40044	0	0
20.26	2.91815	1.46367	-1.28107	0.623029	-0.0730117	0.946049	0.0232372	-0.0151267	-0.141978	0.375589	-0.381734	0	0	-0.108106	-0.0358937	-0.017503	0.159654	-0.368452	0	0	-0.27683	0.0913632	-0.231419	0.448779	-0.161676	0.43567	0.105321	1.5708	0	0	0.200217	-0.434207	0.970657	0.505988	0.400138	0	0
20.27	2.92333	1.46474	-1.28715	0.622971	-0.0736617	0.945755	0.0289828	-0.0167116	-0.14083	0.38324	-0.37946	0	0	-0.104178	-0.0348216	-0.0181634	0.164283	-0.366554	0	0	-0.277856	0.0908901	-0.230795	0.450272	-0.161704	0.435518	0.105137	1.5708	0	0	0.201268	-0.434254	0.970581	0.506354	0.400042	0	0
20.28	2.92983	1.46634	-1.29463	0.622935	-0.0743659	0.945391	0.0357661	-0.0186159	-0.139457	0.391698	-0.376796	0	0	-0.0987371	-0.0335575	-0.0196863	0.170941	-0.363921	0	0	-0.278531	0.0900497	-0.230126	0.451896	-0.161644	0.435293	0.104844	1.5708	0	0	0.202316	-0.434426	0.970462	0.506814	0.400142	0	0
20.29	2.93693	1.46824	-1.30242	0.622888	-0.0751149	0.944977	0.0427731	-0.0205281	-0.137839	0.399976	-0.374069	0	0	-0.0922754	-0.0322199	-0.020896	0.178807	-0.360897	0	0	-0.278947	0.0891468	-0.229881	0.453652	-0.161445	0.434877	0.104487	1.5708	0	0	0.203262	-0.434627	0.969892	0.507232	0.400315	0	0
20.3	2.94529	1.47028	-1.31101	0.622826	-0.0759009	0.944493	0.0508903	-0.0229485	-0.137601	0.410634	-0.370944	0	0	-0.0849486	-0.0307884	-0.0216146	0.187929	-0.357197	0	0	-0.279316	0.0882417	-0.230063	0.455522	-0.161141	0.434864	0.104002	1.5708	0	0	0.204215	-0.434916	0.968967	0.507786	0.400638	0	0
20.31	2.95406	1.47274	-1.31981	0.622759	-0.0767256	0.94389	0.0594634	-0.0253006	-0.136802	0.420915	-0.367562	0	0	-0.0766517	-0.0292116	-0.0212596	0.19796	-0.352786	0	0	-0.279386	0.0873298	-0.230386	0.457468	-0.160869	0.435213	0.103471	1.5708	0	0	0.205241	-0.43525	0.968047	0.508482	0.401141	0	0
20.32	2.96058	1.47531	-1.32667	0.622696	-0.0776631	0.943212	0.0680272	-0.026944	-0.133844	0.430213	-0.364055	0	0	-0.0675261	-0.0278559	-0.0212523	0.209008	-0.34772	0	0	-0.279559	0.0866818	-0.230509	0.459783	-0.160618	0.435934	0.102938	1.5708	0	0	0.206477	-0.43551	0.967178	0.509206	0.401723	0	0
